<?xml version="1.0" encoding="UTF-8"?>
<svg version="1.1" xmlns="http://www.w3.org/2000/svg" width="96" height="96">
<path d="M0 0 C0.36829614 11.2613628 -3.71081534 20.83329797 -10 30 C-10.598125 30.9075 -11.19625 31.815 -11.8125 32.75 C-17.5085983 38.60884397 -24.18321625 41.89334906 -32 44 C-30.6744419 40.37723685 -29.05653045 37.36494652 -26.875 34.1875 C-26.06675781 33.00220703 -26.06675781 33.00220703 -25.2421875 31.79296875 C-24.83226562 31.20128906 -24.42234375 30.60960938 -24 30 C-24.309375 29.38125 -24.61875 28.7625 -24.9375 28.125 C-25.625 26.75 -26.3125 25.375 -27 24 C-34.39925798 26.86579576 -37.84353528 36.40187282 -40.9375 43.1875 C-41.63363478 44.78793848 -42.32454083 46.3907263 -43 48 C-40.69 48 -38.38 48 -36 48 C-36 50.64 -36 53.28 -36 56 C-32.04 56 -28.08 56 -24 56 C-25.44076109 63.27205202 -27.6347303 70.08743439 -30.125 77.0625 C-31.40375 80.671875 -32.6825 84.28125 -34 88 C-43.24 88 -52.48 88 -62 88 C-63.42847077 83.92630745 -64.85406049 79.85183583 -66.27246094 75.7746582 C-66.75581792 74.38800757 -67.24083311 73.00193379 -67.72753906 71.61645508 C-68.42689953 69.62470502 -69.12026718 67.63095545 -69.8125 65.63671875 C-70.23144531 64.43748779 -70.65039062 63.23825684 -71.08203125 62.00268555 C-72 59 -72 59 -72 56 C-68.04 56 -64.08 56 -60 56 C-60 53.36 -60 50.72 -60 48 C-57.69 48 -55.38 48 -53 48 C-52.89510254 47.17761841 -52.89510254 47.17761841 -52.78808594 46.33862305 C-49.02056607 17.47348487 -49.02056607 17.47348487 -38 8 C-26.62612997 0.22299485 -13.30357107 -0.49681386 0 0 Z " fill="#000000" transform="translate(84,4)"/>
</svg>
